<svg width="1257" height="240" viewBox="0 0 1257 240" fill="none" xmlns="http://www.w3.org/2000/svg">
<g id="ne40e">
<g id="chassi">
<path id="Subtract" fill-rule="evenodd" clip-rule="evenodd" d="M5 0C2.23858 0 0 2.23857 0 5V235C0 237.761 2.23857 240 4.99999 240H13.621C13.8404 239.879 14.0665 239.757 14.2941 239.635C15.8616 238.79 17.5 237.908 17.5 237L17.5 232C17.5 227.582 21.0817 224 25.5 224C29.9183 224 33.5 227.582 33.5 232V237C33.5 237.967 35.1729 239.05 36.6752 240H1219.14C1219.36 239.879 1219.59 239.757 1219.82 239.635C1221.38 238.79 1223.02 237.908 1223.02 237V232C1223.02 227.582 1226.6 224 1231.02 224C1235.44 224 1239.02 227.582 1239.02 232V237C1239.02 237.967 1240.69 239.05 1242.2 240H1252C1254.76 240 1257 237.761 1257 235V5C1257 2.23858 1254.76 0 1252 0H5ZM7 11C7 6.58172 10.5817 3 15 3H30C34.4183 3 38 6.58172 38 11C38 15.4183 34.4183 19 30 19H15C10.5817 19 7 15.4183 7 11ZM1222 12C1222 7.58172 1225.58 4 1230 4H1245C1249.42 4 1253 7.58172 1253 12C1253 16.4183 1249.42 20 1245 20H1230C1225.58 20 1222 16.4183 1222 12ZM23 110C26.3137 110 29 107.314 29 104C29 100.686 26.3137 98 23 98C19.6863 98 17 100.686 17 104C17 107.314 19.6863 110 23 110Z" fill="#494C51"/>
</g>
<g id="fan">
<rect id="retangulo" x="63" y="7" width="145" height="228" fill="#C7C7C5"/>
<g id="huawei-logo">
<path id="logo" d="M88.4245 36.3372C88.4581 36.3092 88.4684 36.2625 88.4507 36.2224C86.1152 31.2105 83.2038 26.4877 79.7753 22.1496C79.7753 22.1496 77.05 24.7349 77.2432 27.3296C77.336 28.5386 77.9042 29.6616 78.8233 30.4525C81.2005 32.77 86.9573 35.6951 88.2967 36.3568C88.3387 36.3801 88.3919 36.3717 88.4255 36.3381L88.4245 36.3372ZM87.5351 38.3205C87.5262 38.2949 87.5095 38.2728 87.4874 38.257C87.4654 38.2413 87.439 38.2328 87.4119 38.2328V38.2309L77.8265 38.5651C78.8653 40.4187 80.6265 41.8579 82.44 41.4164C83.6981 41.1019 86.5504 39.1129 87.48 38.4419V38.4391C87.5519 38.3737 87.5267 38.3215 87.5267 38.3215L87.5351 38.3205ZM87.6797 37.4591C87.7264 37.3844 87.6424 37.3191 87.6424 37.3191L87.6433 37.3153C83.4433 34.478 75.2748 30.1165 75.2748 30.1165C74.8332 31.4834 74.9264 32.9668 75.5356 34.2677C76.1448 35.5685 77.2247 36.5899 78.5573 37.1259C79.1427 37.3579 79.7617 37.494 80.3904 37.5291C80.5341 37.5571 86.0912 37.5319 87.5789 37.5253C87.6209 37.5207 87.6583 37.4955 87.6779 37.4581L87.6797 37.4591ZM88.3163 18.0112C87.8981 18.0485 86.7725 18.3043 86.7725 18.3043C85.2857 18.6832 84.1004 19.8023 83.6347 21.2629C83.3716 22.2597 83.3761 23.3083 83.6477 24.3028C84.4943 28.0604 88.6635 34.2372 89.5576 35.5327C89.6211 35.5961 89.6733 35.5728 89.6733 35.5728C89.7275 35.5597 89.7648 35.5093 89.762 35.4533H89.7639C91.1415 21.6652 88.3172 18 88.3172 18L88.3163 18.0112ZM91.4877 35.5691C91.54 35.5905 91.5997 35.5681 91.6259 35.5177C92.5461 34.1868 96.6901 28.0445 97.532 24.3028C97.784 23.306 97.7896 22.2625 97.5479 21.2629C97.3157 20.5407 96.9028 19.8899 96.3484 19.3721C95.794 18.8542 95.1165 18.4867 94.3801 18.3043C94.3801 18.3043 93.6475 18.1195 92.8709 18.0103C92.8709 18.0103 90.0299 21.6671 91.4112 35.4636H91.4131C91.414 35.5103 91.4429 35.5532 91.4877 35.5691ZM93.7557 38.2412C93.7557 38.2412 93.6624 38.2524 93.6475 38.314C93.6363 38.3607 93.6503 38.4111 93.6848 38.4447C94.5995 39.1027 97.3808 41.058 98.7248 41.4248C98.7248 41.4248 101.203 42.2685 103.354 38.5725L93.7576 38.2365L93.7557 38.2412ZM105.908 30.0951C105.908 30.0951 97.7597 34.4668 93.5457 37.3097C93.5246 37.3255 93.5087 37.3474 93.5002 37.3724C93.4917 37.3973 93.491 37.4243 93.4981 37.4497C93.4981 37.4497 93.5383 37.5216 93.5971 37.5216V37.5235L100.957 37.5048C101.523 37.4603 102.079 37.332 102.607 37.124C103.984 36.5845 105.092 35.5243 105.693 34.1728C106.257 32.8843 106.333 31.4356 105.908 30.0951ZM92.7757 36.3475C92.8131 36.3755 92.8644 36.3792 92.9064 36.3568C94.2784 35.6717 99.9932 32.7663 102.359 30.4609C103.278 29.6639 103.845 28.5368 103.938 27.324C104.111 24.6407 101.418 22.158 101.418 22.158C97.9968 26.4848 95.0902 31.195 92.7571 36.1935H92.7599C92.7347 36.2448 92.7449 36.3055 92.786 36.3465" fill="#1D1F22"/>
<path id="name" d="M76.1732 49.9241H75V43.0051H76.1732V45.8086H78.784V43.0051H79.9572V49.9234H78.784V47.0279H76.1732V49.9241ZM82.0848 47.1483C82.0848 48.3721 82.3721 48.8817 83.3423 48.8817C84.3124 48.8817 84.5873 48.3669 84.5873 47.1483V43.0045H85.7596V47.1869C85.8199 47.8387 85.7045 48.4976 85.4339 49.0445C84.9742 49.7214 84.3072 50 83.3375 50C82.3678 50 81.6921 49.7214 81.2343 49.0445C80.9776 48.6726 80.9144 48.0632 80.9144 47.1869V43.0045H82.0795L82.0848 47.1483ZM89.5948 43.0045L91.9699 49.9234H90.6708L90.1584 48.2749H87.7354L87.2388 49.9234H85.9923L88.3507 43.0045H89.5948ZM88.1117 47.0427H89.7734L88.9272 44.384L88.1117 47.0427ZM99.9128 43.0051L98.1889 49.9234H96.7523L95.5695 44.7656L94.5304 49.9305H93.101L91.2445 43.0122H92.5039L93.7968 48.3309L94.8838 43.0122H96.2663L97.5152 48.3309L98.7186 43.0122L99.9128 43.0051ZM101.495 45.8183H104.741V47.0176H101.484C101.491 48.2608 101.887 48.7125 102.811 48.7125H104.736V49.9176H102.756C102.141 49.9949 101.526 49.7806 101.017 49.3109C100.72 48.9848 100.486 48.5657 100.338 48.0902C100.189 47.6148 100.129 47.0976 100.164 46.584C100.164 44.1389 100.995 43 102.788 43H104.735V44.2058H102.81C101.966 44.2052 101.539 44.7244 101.491 45.8131L101.495 45.8183ZM105.774 43.0051H107V49.9241H105.774V43.0051Z" fill="#1D1F22"/>
</g>
<g id="Ellipse 1" filter="url(#filter0_d)">
<circle cx="97" cy="214" r="17" fill="#ACACAC"/>
<circle cx="97" cy="214" r="16.95" stroke="#555555" stroke-width="0.1"/>
</g>
<circle id="Ellipse 3" cx="97" cy="214" r="7" fill="#262626"/>
</g>
<g id="slot1">
<rect id="retangulo_2" x="214" y="125" width="492" height="53" fill="#C7C7C5"/>
<g id="parafuso">
<circle id="parafuso_2" cx="236" cy="152" r="12" fill="#494C51"/>
<path id="Star 1" d="M236.104 146.248C236.529 145.27 237.985 145.548 238.021 146.614L238.13 149.907C238.142 150.293 238.376 150.637 238.73 150.791L241.752 152.104C242.73 152.529 242.452 153.985 241.386 154.021L238.093 154.13C237.707 154.142 237.363 154.376 237.209 154.73L235.896 157.752C235.471 158.73 234.015 158.452 233.979 157.386L233.87 154.093C233.858 153.707 233.624 153.363 233.27 153.209L230.248 151.896C229.27 151.471 229.548 150.015 230.614 149.979L233.907 149.87C234.293 149.858 234.637 149.624 234.791 149.27L236.104 146.248Z" fill="#C4C4C4"/>
</g>
<g id="parafuso_3">
<circle id="parafuso_4" cx="686" cy="152" r="12" fill="#494C51"/>
<path id="Star 1_2" d="M686.104 146.248C686.529 145.27 687.985 145.548 688.021 146.614L688.13 149.907C688.142 150.293 688.376 150.637 688.73 150.791L691.752 152.104C692.73 152.529 692.452 153.985 691.386 154.021L688.093 154.13C687.707 154.142 687.363 154.376 687.209 154.73L685.896 157.752C685.471 158.73 684.015 158.452 683.979 157.386L683.87 154.093C683.858 153.707 683.624 153.363 683.27 153.209L680.248 151.896C679.27 151.471 679.548 150.015 680.614 149.979L683.907 149.87C684.293 149.858 684.637 149.624 684.791 149.27L686.104 146.248Z" fill="#C4C4C4"/>
</g>
</g>
<g id="slot2">
<rect id="retangulo_3" x="709" y="125" width="495" height="53" fill="#C7C7C5"/>
<g id="parafuso_5">
<circle id="parafuso_6" cx="731" cy="152" r="12" fill="#494C51"/>
<path id="Star 1_3" d="M731.104 146.248C731.529 145.27 732.985 145.548 733.021 146.614L733.13 149.907C733.142 150.293 733.376 150.637 733.73 150.791L736.752 152.104C737.73 152.529 737.452 153.985 736.386 154.021L733.093 154.13C732.707 154.142 732.363 154.376 732.209 154.73L730.896 157.752C730.471 158.73 729.015 158.452 728.979 157.386L728.87 154.093C728.858 153.707 728.624 153.363 728.27 153.209L725.248 151.896C724.27 151.471 724.548 150.015 725.614 149.979L728.907 149.87C729.293 149.858 729.637 149.624 729.791 149.27L731.104 146.248Z" fill="#C4C4C4"/>
</g>
<g id="parafuso_7">
<circle id="parafuso_8" cx="1186" cy="152" r="12" fill="#494C51"/>
<path id="Star 1_4" d="M1186.1 146.248C1186.53 145.27 1187.99 145.548 1188.02 146.614L1188.13 149.907C1188.14 150.293 1188.38 150.637 1188.73 150.791L1191.75 152.104C1192.73 152.529 1192.45 153.985 1191.39 154.021L1188.09 154.13C1187.71 154.142 1187.36 154.376 1187.21 154.73L1185.9 157.752C1185.47 158.73 1184.01 158.452 1183.98 157.386L1183.87 154.093C1183.86 153.707 1183.62 153.363 1183.27 153.209L1180.25 151.896C1179.27 151.471 1179.55 150.015 1180.61 149.979L1183.91 149.87C1184.29 149.858 1184.64 149.624 1184.79 149.27L1186.1 146.248Z" fill="#C4C4C4"/>
</g>
</g>
<g id="fonte2">
<rect id="retangulo_4" x="958" y="182" width="246" height="53" fill="#C7C7C5"/>
<g id="parafuso_9">
<ellipse id="parafuso_10" cx="979.086" cy="209" rx="12.049" ry="12" fill="#494C51"/>
<path id="Star 1_5" d="M979.137 203.248C979.562 202.27 981.018 202.548 981.053 203.614L981.162 206.907C981.175 207.293 981.409 207.637 981.763 207.791L984.784 209.104C985.762 209.529 985.484 210.985 984.419 211.021L981.126 211.13C980.74 211.142 980.396 211.376 980.242 211.73L978.929 214.752C978.503 215.73 977.047 215.452 977.012 214.386L976.903 211.093C976.89 210.707 976.656 210.363 976.302 210.209L973.281 208.896C972.303 208.471 972.581 207.015 973.647 206.979L976.939 206.87C977.325 206.858 977.669 206.624 977.823 206.27L979.137 203.248Z" fill="#C4C4C4"/>
</g>
<g id="parafuso_11">
<ellipse id="parafuso_12" cx="1185.93" cy="209" rx="12.049" ry="12" fill="#494C51"/>
<path id="Star 1_6" d="M1185.98 203.248C1186.4 202.27 1187.86 202.548 1187.89 203.614L1188 206.907C1188.02 207.293 1188.25 207.637 1188.6 207.791L1191.63 209.104C1192.6 209.529 1192.33 210.985 1191.26 211.021L1187.97 211.13C1187.58 211.142 1187.24 211.376 1187.08 211.73L1185.77 214.752C1185.34 215.73 1183.89 215.452 1183.85 214.386L1183.74 211.093C1183.73 210.707 1183.5 210.363 1183.14 210.209L1180.12 208.896C1179.14 208.471 1179.42 207.015 1180.49 206.979L1183.78 206.87C1184.17 206.858 1184.51 206.624 1184.66 206.27L1185.98 203.248Z" fill="#C4C4C4"/>
</g>
</g>
<g id="fonte1">
<rect id="retangulo_5" x="709" y="182" width="246" height="53" fill="#C7C7C5"/>
<g id="parafuso_13">
<ellipse id="parafuso_14" cx="731.09" cy="209" rx="12.049" ry="12" fill="#494C51"/>
<path id="Star 1_7" d="M731.141 203.248C731.566 202.27 733.022 202.548 733.057 203.614L733.166 206.907C733.179 207.293 733.413 207.637 733.767 207.791L736.788 209.104C737.766 209.529 737.489 210.985 736.423 211.021L733.13 211.13C732.744 211.142 732.4 211.376 732.246 211.73L730.933 214.752C730.507 215.73 729.051 215.452 729.016 214.386L728.907 211.093C728.894 210.707 728.661 210.363 728.306 210.209L725.285 208.896C724.307 208.471 724.585 207.015 725.651 206.979L728.943 206.87C729.329 206.858 729.673 206.624 729.827 206.27L731.141 203.248Z" fill="#C4C4C4"/>
</g>
<g id="parafuso_15">
<ellipse id="parafuso_16" cx="934.918" cy="209" rx="12.049" ry="12" fill="#494C51"/>
<path id="Star 1_8" d="M934.969 203.248C935.395 202.27 936.851 202.548 936.886 203.614L936.995 206.907C937.008 207.293 937.241 207.637 937.596 207.791L940.617 209.104C941.595 209.529 941.317 210.985 940.251 211.021L936.959 211.13C936.573 211.142 936.229 211.376 936.075 211.73L934.761 214.752C934.336 215.73 932.88 215.452 932.845 214.386L932.736 211.093C932.723 210.707 932.489 210.363 932.135 210.209L929.114 208.896C928.136 208.471 928.414 207.015 929.479 206.979L932.772 206.87C933.158 206.858 933.502 206.624 933.656 206.27L934.969 203.248Z" fill="#C4C4C4"/>
</g>
</g>
<g id="slot0">
<rect id="retangulo_6" x="214" y="182" width="492" height="53" fill="#C7C7C5"/>
<g id="parafuso_17">
<circle id="parafuso_18" cx="686" cy="209" r="12" fill="#494C51"/>
<path id="Star 1_9" d="M686.104 203.248C686.529 202.27 687.985 202.548 688.021 203.614L688.13 206.907C688.142 207.293 688.376 207.637 688.73 207.791L691.752 209.104C692.73 209.529 692.452 210.985 691.386 211.021L688.093 211.13C687.707 211.142 687.363 211.376 687.209 211.73L685.896 214.752C685.471 215.73 684.015 215.452 683.979 214.386L683.87 211.093C683.858 210.707 683.624 210.363 683.27 210.209L680.248 208.896C679.27 208.471 679.548 207.015 680.614 206.979L683.907 206.87C684.293 206.858 684.637 206.624 684.791 206.27L686.104 203.248Z" fill="#C4C4C4"/>
</g>
<g id="parafuso_19">
<circle id="parafuso_20" cx="236" cy="209" r="12" fill="#494C51"/>
<path id="Star 1_10" d="M236.104 203.248C236.529 202.27 237.985 202.548 238.021 203.614L238.13 206.907C238.142 207.293 238.376 207.637 238.73 207.791L241.752 209.104C242.73 209.529 242.452 210.985 241.386 211.021L238.093 211.13C237.707 211.142 237.363 211.376 237.209 211.73L235.896 214.752C235.471 215.73 234.015 215.452 233.979 214.386L233.87 211.093C233.858 210.707 233.624 210.363 233.27 210.209L230.248 208.896C229.27 208.471 229.548 207.015 230.614 206.979L233.907 206.87C234.293 206.858 234.637 206.624 234.791 206.27L236.104 203.248Z" fill="#C4C4C4"/>
</g>
</g>
<g id="slot3">
<rect id="retangulo_7" x="214" y="7" width="990" height="113" fill="#C7C7C5"/>
<g id="portasfp">
<rect id="retangulo_sfp_4" x="523.5" y="26.5" width="33" height="27" fill="#7E7E7E" stroke="black"/>
<path id="porta_sfp4" d="M552.467 68.1606C552.25 68.4712 551.947 68.7041 551.557 68.8594C551.17 69.0117 550.719 69.0879 550.204 69.0879C549.682 69.0879 549.219 68.9663 548.815 68.7231C548.411 68.4771 548.097 68.1284 547.875 67.6772C547.655 67.2261 547.542 66.7031 547.536 66.1084V65.5503C547.536 64.5864 547.76 63.8394 548.208 63.3091C548.66 62.7788 549.292 62.5137 550.107 62.5137C550.775 62.5137 551.312 62.6851 551.72 63.0278C552.127 63.3677 552.376 63.8511 552.467 64.478H551.623C551.465 63.6313 550.961 63.208 550.111 63.208C549.546 63.208 549.117 63.4072 548.824 63.8057C548.534 64.2012 548.387 64.7754 548.384 65.5283V66.0513C548.384 66.769 548.548 67.3403 548.876 67.7651C549.205 68.187 549.648 68.3979 550.208 68.3979C550.524 68.3979 550.801 68.3628 551.039 68.2925C551.276 68.2222 551.472 68.1035 551.627 67.9365V66.4995H550.146V65.814H552.467V68.1606ZM557.494 66.0425H554.721V68.3101H557.942V69H553.877V62.6016H557.898V63.2959H554.721V65.3525H557.494V66.0425ZM562.794 66.271C562.794 67.2231 562.631 67.9307 562.306 68.3936C561.981 68.8564 561.473 69.0879 560.781 69.0879C560.099 69.0879 559.593 68.8623 559.265 68.4111C558.937 67.957 558.767 67.2803 558.755 66.3809V65.2954C558.755 64.355 558.918 63.6562 559.243 63.1992C559.568 62.7422 560.078 62.5137 560.772 62.5137C561.461 62.5137 561.968 62.7349 562.293 63.1772C562.618 63.6167 562.785 64.2964 562.794 65.2163V66.271ZM561.981 65.1592C561.981 64.4707 561.884 63.9697 561.691 63.6562C561.498 63.3398 561.191 63.1816 560.772 63.1816C560.356 63.1816 560.053 63.3384 559.863 63.6519C559.672 63.9653 559.574 64.4473 559.568 65.0977V66.3984C559.568 67.0898 559.668 67.6011 559.867 67.9321C560.069 68.2603 560.374 68.4243 560.781 68.4243C561.183 68.4243 561.48 68.269 561.673 67.9585C561.87 67.6479 561.972 67.1587 561.981 66.4907V65.1592Z" fill="black"/>
<circle id="led_sfp_ge0" cx="540" cy="62" r="6.5" fill="#3B3B3B" stroke="#3B3B3B"/>
</g>
<g id="portasfp_2">
<rect id="retangulo_sfp_4_2" x="611.5" y="73.5" width="33" height="27" fill="#7E7E7E" stroke="black"/>
<path id="porta_sfp4_2" d="M638.964 113.851H639.852V114.515H638.964V116H638.146V114.515H635.233V114.036L638.098 109.602H638.964V113.851ZM636.156 113.851H638.146V110.713L638.05 110.889L636.156 113.851Z" fill="black"/>
<circle id="led_sfp_4" cx="628" cy="109" r="6.5" fill="#3B3B3B" stroke="#3B3B3B"/>
</g>
<g id="portasfp_3">
<rect id="retangulo_sfp_4_3" x="567.5" y="26.5" width="33" height="27" fill="#7E7E7E" stroke="black"/>
<path id="porta_sfp4_3" d="M596.467 68.1606C596.25 68.4712 595.947 68.7041 595.557 68.8594C595.17 69.0117 594.719 69.0879 594.204 69.0879C593.682 69.0879 593.219 68.9663 592.815 68.7231C592.411 68.4771 592.097 68.1284 591.875 67.6772C591.655 67.2261 591.542 66.7031 591.536 66.1084V65.5503C591.536 64.5864 591.76 63.8394 592.208 63.3091C592.66 62.7788 593.292 62.5137 594.107 62.5137C594.775 62.5137 595.312 62.6851 595.72 63.0278C596.127 63.3677 596.376 63.8511 596.467 64.478H595.623C595.465 63.6313 594.961 63.208 594.111 63.208C593.546 63.208 593.117 63.4072 592.824 63.8057C592.534 64.2012 592.387 64.7754 592.384 65.5283V66.0513C592.384 66.769 592.548 67.3403 592.876 67.7651C593.205 68.187 593.648 68.3979 594.208 68.3979C594.524 68.3979 594.801 68.3628 595.039 68.2925C595.276 68.2222 595.472 68.1035 595.627 67.9365V66.4995H594.146V65.814H596.467V68.1606ZM601.494 66.0425H598.721V68.3101H601.942V69H597.877V62.6016H601.898V63.2959H598.721V65.3525H601.494V66.0425ZM605.454 69H604.636V63.5815L602.997 64.1836V63.4453L605.326 62.5708H605.454V69Z" fill="black"/>
<circle id="led_sfp_ge1" cx="584" cy="62" r="6.5" fill="#3B3B3B" stroke="#3B3B3B"/>
</g>
<g id="portasfp_4">
<rect id="retangulo_sfp_4_4" x="611.5" y="26.5" width="33" height="27" fill="#7E7E7E" stroke="black"/>
<path id="porta_sfp4_4" d="M638.204 69H637.386V63.5815L635.747 64.1836V63.4453L638.076 62.5708H638.204V69ZM644.018 66.8511H644.905V67.5146H644.018V69H643.2V67.5146H640.287V67.0356L643.152 62.6016H644.018V66.8511ZM641.209 66.8511H643.2V63.7134L643.104 63.8892L641.209 66.8511Z" fill="black"/>
<circle id="led_sfp_4_2" cx="628" cy="62" r="6.5" fill="#3B3B3B" stroke="#3B3B3B"/>
</g>
<g id="portasfp_5">
<rect id="retangulo_sfp_4_5" x="655.5" y="73.5" width="33" height="27" fill="#7E7E7E" stroke="black"/>
<path id="porta_sfp4_5" d="M679.905 112.792L680.23 109.602H683.509V110.353H680.92L680.727 112.098C681.041 111.913 681.396 111.821 681.795 111.821C682.378 111.821 682.841 112.014 683.184 112.401C683.526 112.785 683.698 113.305 683.698 113.961C683.698 114.62 683.519 115.14 683.162 115.521C682.807 115.899 682.311 116.088 681.672 116.088C681.106 116.088 680.645 115.931 680.288 115.618C679.93 115.304 679.727 114.871 679.677 114.317H680.446C680.496 114.683 680.626 114.96 680.837 115.147C681.048 115.332 681.326 115.424 681.672 115.424C682.05 115.424 682.346 115.295 682.56 115.038C682.776 114.78 682.885 114.424 682.885 113.97C682.885 113.542 682.768 113.199 682.533 112.941C682.302 112.681 681.993 112.55 681.606 112.55C681.251 112.55 680.973 112.628 680.771 112.783L680.556 112.959L679.905 112.792Z" fill="black"/>
<circle id="led_sfp_5" cx="672" cy="109" r="6.5" fill="#3B3B3B" stroke="#3B3B3B"/>
</g>
<g id="portasfp_6">
<rect id="retangulo_sfp_4_6" x="655.5" y="26.5" width="33" height="27" fill="#7E7E7E" stroke="black"/>
<path id="porta_sfp4_6" d="M682.204 69H681.386V63.5815L679.747 64.1836V63.4453L682.076 62.5708H682.204V69ZM684.959 65.792L685.284 62.6016H688.562V63.353H685.974L685.781 65.0977C686.094 64.9131 686.45 64.8208 686.849 64.8208C687.432 64.8208 687.895 65.0142 688.237 65.4009C688.58 65.7847 688.751 66.3047 688.751 66.9609C688.751 67.6201 688.573 68.1401 688.215 68.521C687.861 68.8989 687.364 69.0879 686.726 69.0879C686.16 69.0879 685.699 68.9312 685.341 68.6177C684.984 68.3042 684.78 67.8706 684.73 67.3169H685.5C685.549 67.6831 685.68 67.96 685.891 68.1475C686.102 68.332 686.38 68.4243 686.726 68.4243C687.104 68.4243 687.399 68.2954 687.613 68.0376C687.83 67.7798 687.938 67.4238 687.938 66.9697C687.938 66.542 687.821 66.1992 687.587 65.9414C687.355 65.6807 687.046 65.5503 686.66 65.5503C686.305 65.5503 686.027 65.6279 685.825 65.7832L685.609 65.959L684.959 65.792Z" fill="black"/>
<circle id="led_sfp_4_3" cx="672" cy="62" r="6.5" fill="#3B3B3B" stroke="#3B3B3B"/>
</g>
<g id="portasfp_7">
<rect id="retangulo_sfp_4_7" x="699.5" y="73.5" width="33" height="27" fill="#7E7E7E" stroke="black"/>
<path id="porta_sfp4_7" d="M726.722 109.597V110.287H726.573C725.94 110.299 725.436 110.486 725.061 110.85C724.686 111.213 724.469 111.724 724.411 112.383C724.748 111.997 725.208 111.803 725.791 111.803C726.347 111.803 726.791 112 727.122 112.392C727.456 112.785 727.623 113.292 727.623 113.913C727.623 114.572 727.443 115.099 727.083 115.495C726.725 115.89 726.245 116.088 725.641 116.088C725.029 116.088 724.532 115.854 724.151 115.385C723.771 114.913 723.58 114.307 723.58 113.565V113.253C723.58 112.076 723.831 111.176 724.332 110.555C724.835 109.931 725.584 109.612 726.577 109.597H726.722ZM725.654 112.48C725.376 112.48 725.12 112.563 724.885 112.73C724.651 112.897 724.488 113.107 724.397 113.359V113.658C724.397 114.185 724.516 114.61 724.753 114.932C724.991 115.254 725.287 115.416 725.641 115.416C726.007 115.416 726.294 115.281 726.502 115.011C726.713 114.742 726.819 114.389 726.819 113.952C726.819 113.513 726.712 113.158 726.498 112.889C726.287 112.616 726.006 112.48 725.654 112.48Z" fill="black"/>
<circle id="led_sfp_6" cx="716" cy="109" r="6.5" fill="#3B3B3B" stroke="#3B3B3B"/>
</g>
<g id="portasfp_8">
<rect id="retangulo_sfp_4_8" x="699.5" y="26.5" width="33" height="27" fill="#7E7E7E" stroke="black"/>
<path id="porta_sfp4_8" d="M726.204 69H725.386V63.5815L723.747 64.1836V63.4453L726.076 62.5708H726.204V69ZM731.776 62.5972V63.2871H731.626C730.994 63.2988 730.49 63.4863 730.115 63.8496C729.74 64.2129 729.523 64.7241 729.464 65.3833C729.801 64.9966 730.261 64.8032 730.844 64.8032C731.401 64.8032 731.845 64.9995 732.176 65.3921C732.51 65.7847 732.677 66.2915 732.677 66.9126C732.677 67.5718 732.497 68.0991 732.136 68.4946C731.779 68.8901 731.298 69.0879 730.695 69.0879C730.083 69.0879 729.586 68.8535 729.205 68.3848C728.824 67.9131 728.634 67.3066 728.634 66.5654V66.2534C728.634 65.0757 728.884 64.1763 729.385 63.5552C729.889 62.9312 730.638 62.6118 731.631 62.5972H731.776ZM730.708 65.48C730.43 65.48 730.173 65.5635 729.939 65.7305C729.705 65.8975 729.542 66.1069 729.451 66.3589V66.6577C729.451 67.1851 729.57 67.6099 729.807 67.9321C730.044 68.2544 730.34 68.4155 730.695 68.4155C731.061 68.4155 731.348 68.2808 731.556 68.0112C731.767 67.7417 731.873 67.3887 731.873 66.9521C731.873 66.5127 731.766 66.1582 731.552 65.8887C731.341 65.6162 731.06 65.48 730.708 65.48Z" fill="black"/>
<circle id="led_sfp_4_4" cx="716" cy="62" r="6.5" fill="#3B3B3B" stroke="#3B3B3B"/>
</g>
<g id="portasfp_9">
<rect id="retangulo_sfp_4_9" x="743.5" y="73.5" width="33" height="27" fill="#7E7E7E" stroke="black"/>
<path id="porta_sfp4_9" d="M771.663 110.059L769.013 116H768.16L770.801 110.27H767.338V109.602H771.663V110.059Z" fill="black"/>
<circle id="led_sfp_7" cx="760" cy="109" r="6.5" fill="#3B3B3B" stroke="#3B3B3B"/>
</g>
<g id="portasfp_10">
<rect id="retangulo_sfp_4_10" x="743.5" y="26.5" width="33" height="27" fill="#7E7E7E" stroke="black"/>
<path id="porta_sfp4_10" d="M770.204 69H769.386V63.5815L767.747 64.1836V63.4453L770.076 62.5708H770.204V69ZM776.716 63.0586L774.066 69H773.214L775.855 63.2695H772.392V62.6016H776.716V63.0586Z" fill="black"/>
<circle id="led_sfp_4_5" cx="760" cy="62" r="6.5" fill="#3B3B3B" stroke="#3B3B3B"/>
</g>
<g id="portasfp_11">
<rect id="retangulo_sfp_4_11" x="787.5" y="73.5" width="33" height="27" fill="#7E7E7E" stroke="black"/>
<path id="porta_sfp4_11" d="M815.412 111.271C815.412 111.591 815.327 111.875 815.157 112.124C814.99 112.373 814.763 112.568 814.476 112.708C814.81 112.852 815.074 113.062 815.267 113.337C815.463 113.612 815.562 113.924 815.562 114.273C815.562 114.827 815.374 115.268 814.999 115.596C814.627 115.924 814.136 116.088 813.527 116.088C812.912 116.088 812.418 115.924 812.046 115.596C811.677 115.265 811.492 114.824 811.492 114.273C811.492 113.927 811.586 113.615 811.773 113.337C811.964 113.059 812.226 112.848 812.56 112.704C812.276 112.563 812.052 112.369 811.888 112.12C811.724 111.871 811.642 111.588 811.642 111.271C811.642 110.732 811.814 110.305 812.16 109.988C812.506 109.672 812.961 109.514 813.527 109.514C814.089 109.514 814.543 109.672 814.889 109.988C815.238 110.305 815.412 110.732 815.412 111.271ZM814.749 114.255C814.749 113.898 814.634 113.606 814.406 113.381C814.18 113.155 813.884 113.042 813.518 113.042C813.152 113.042 812.857 113.154 812.635 113.376C812.415 113.599 812.305 113.892 812.305 114.255C812.305 114.619 812.412 114.904 812.626 115.112C812.843 115.32 813.143 115.424 813.527 115.424C813.908 115.424 814.207 115.32 814.423 115.112C814.64 114.901 814.749 114.616 814.749 114.255ZM813.527 110.182C813.208 110.182 812.948 110.281 812.749 110.48C812.553 110.677 812.455 110.945 812.455 111.285C812.455 111.61 812.551 111.874 812.745 112.076C812.941 112.275 813.202 112.375 813.527 112.375C813.852 112.375 814.111 112.275 814.305 112.076C814.501 111.874 814.599 111.61 814.599 111.285C814.599 110.959 814.498 110.694 814.296 110.489C814.094 110.284 813.837 110.182 813.527 110.182Z" fill="black"/>
<circle id="led_sfp_8" cx="804" cy="109" r="6.5" fill="#3B3B3B" stroke="#3B3B3B"/>
</g>
<g id="portasfp_12">
<rect id="retangulo_sfp_4_12" x="787.5" y="26.5" width="33" height="27" fill="#7E7E7E" stroke="black"/>
<path id="porta_sfp4_12" d="M814.204 69H813.386V63.5815L811.747 64.1836V63.4453L814.076 62.5708H814.204V69ZM820.466 64.2715C820.466 64.5908 820.381 64.875 820.211 65.124C820.044 65.373 819.817 65.5679 819.53 65.7085C819.864 65.8521 820.127 66.0615 820.321 66.3369C820.517 66.6123 820.615 66.9243 820.615 67.2729C820.615 67.8267 820.428 68.2676 820.053 68.5957C819.681 68.9238 819.19 69.0879 818.581 69.0879C817.965 69.0879 817.472 68.9238 817.1 68.5957C816.73 68.2646 816.546 67.8237 816.546 67.2729C816.546 66.9272 816.64 66.6152 816.827 66.3369C817.018 66.0586 817.28 65.8477 817.614 65.7041C817.33 65.5635 817.105 65.3687 816.941 65.1196C816.777 64.8706 816.695 64.5879 816.695 64.2715C816.695 63.7324 816.868 63.3047 817.214 62.9883C817.56 62.6719 818.015 62.5137 818.581 62.5137C819.143 62.5137 819.597 62.6719 819.943 62.9883C820.292 63.3047 820.466 63.7324 820.466 64.2715ZM819.802 67.2554C819.802 66.8979 819.688 66.6064 819.459 66.3809C819.234 66.1553 818.938 66.0425 818.572 66.0425C818.206 66.0425 817.911 66.1538 817.688 66.3765C817.469 66.5991 817.359 66.8921 817.359 67.2554C817.359 67.6187 817.466 67.9043 817.68 68.1123C817.896 68.3203 818.197 68.4243 818.581 68.4243C818.961 68.4243 819.26 68.3203 819.477 68.1123C819.694 67.9014 819.802 67.6157 819.802 67.2554ZM818.581 63.1816C818.261 63.1816 818.002 63.2812 817.803 63.4805C817.606 63.6768 817.508 63.9448 817.508 64.2847C817.508 64.6099 817.605 64.8735 817.798 65.0757C817.995 65.2749 818.255 65.3745 818.581 65.3745C818.906 65.3745 819.165 65.2749 819.358 65.0757C819.555 64.8735 819.653 64.6099 819.653 64.2847C819.653 63.9595 819.552 63.6943 819.35 63.4893C819.147 63.2842 818.891 63.1816 818.581 63.1816Z" fill="black"/>
<circle id="led_sfp_4_6" cx="804" cy="62" r="6.5" fill="#3B3B3B" stroke="#3B3B3B"/>
</g>
<g id="portasfp_13">
<rect id="retangulo_sfp_4_13" x="821.5" y="73.5" width="33" height="27" fill="#7E7E7E" stroke="black"/>
<path id="porta_sfp4_13" d="M848.647 113.188C848.478 113.39 848.274 113.552 848.037 113.675C847.802 113.798 847.544 113.86 847.263 113.86C846.894 113.86 846.572 113.769 846.296 113.587C846.024 113.406 845.813 113.151 845.664 112.823C845.514 112.492 845.439 112.127 845.439 111.729C845.439 111.301 845.52 110.916 845.681 110.573C845.845 110.23 846.077 109.968 846.375 109.786C846.674 109.604 847.023 109.514 847.421 109.514C848.054 109.514 848.552 109.751 848.916 110.226C849.282 110.697 849.465 111.342 849.465 112.159V112.396C849.465 113.642 849.219 114.551 848.727 115.125C848.234 115.697 847.492 115.99 846.499 116.004H846.34V115.319H846.512C847.183 115.307 847.698 115.133 848.059 114.796C848.419 114.456 848.615 113.92 848.647 113.188ZM847.395 113.188C847.667 113.188 847.918 113.104 848.146 112.937C848.378 112.77 848.546 112.563 848.652 112.317V111.992C848.652 111.459 848.536 111.025 848.305 110.691C848.073 110.357 847.78 110.19 847.426 110.19C847.068 110.19 846.781 110.328 846.564 110.604C846.348 110.876 846.239 111.236 846.239 111.685C846.239 112.121 846.343 112.481 846.551 112.766C846.762 113.047 847.043 113.188 847.395 113.188Z" fill="black"/>
<circle id="led_sfp_9" cx="838" cy="109" r="6.5" fill="#3B3B3B" stroke="#3B3B3B"/>
</g>
<g id="portasfp_14">
<rect id="retangulo_sfp_4_14" x="821.5" y="26.5" width="33" height="27" fill="#7E7E7E" stroke="black"/>
<path id="porta_sfp4_14" d="M848.204 69H847.386V63.5815L845.747 64.1836V63.4453L848.076 62.5708H848.204V69ZM853.701 66.1875C853.531 66.3896 853.328 66.5522 853.09 66.6753C852.856 66.7983 852.598 66.8599 852.317 66.8599C851.948 66.8599 851.625 66.769 851.35 66.5874C851.078 66.4058 850.867 66.1509 850.717 65.8228C850.568 65.4917 850.493 65.127 850.493 64.7285C850.493 64.3008 850.574 63.9155 850.735 63.5728C850.899 63.23 851.13 62.9678 851.429 62.7861C851.728 62.6045 852.077 62.5137 852.475 62.5137C853.108 62.5137 853.606 62.751 853.969 63.2256C854.335 63.6973 854.519 64.3418 854.519 65.1592V65.3965C854.519 66.6416 854.272 67.5513 853.78 68.1255C853.288 68.6968 852.545 68.9897 851.552 69.0044H851.394V68.3188H851.565C852.236 68.3071 852.752 68.1328 853.112 67.7959C853.473 67.4561 853.669 66.9199 853.701 66.1875ZM852.449 66.1875C852.721 66.1875 852.972 66.104 853.2 65.937C853.432 65.77 853.6 65.5635 853.706 65.3174V64.9922C853.706 64.459 853.59 64.0254 853.358 63.6914C853.127 63.3574 852.834 63.1904 852.479 63.1904C852.122 63.1904 851.835 63.3281 851.618 63.6035C851.401 63.876 851.293 64.2363 851.293 64.6846C851.293 65.1211 851.397 65.4814 851.605 65.7656C851.816 66.0469 852.097 66.1875 852.449 66.1875Z" fill="black"/>
<circle id="led_sfp_4_7" cx="838" cy="62" r="6.5" fill="#3B3B3B" stroke="#3B3B3B"/>
</g>
<g id="portasfp_15">
<rect id="retangulo_sfp_4_15" x="855.5" y="73.5" width="33" height="27" fill="#7E7E7E" stroke="black"/>
<path id="porta_sfp4_15" d="M882.204 116H881.386V110.582L879.747 111.184V110.445L882.076 109.571H882.204V116ZM888.598 113.271C888.598 114.223 888.435 114.931 888.11 115.394C887.785 115.856 887.276 116.088 886.585 116.088C885.902 116.088 885.397 115.862 885.069 115.411C884.741 114.957 884.571 114.28 884.559 113.381V112.295C884.559 111.355 884.722 110.656 885.047 110.199C885.372 109.742 885.882 109.514 886.576 109.514C887.265 109.514 887.771 109.735 888.097 110.177C888.422 110.617 888.589 111.296 888.598 112.216V113.271ZM887.785 112.159C887.785 111.471 887.688 110.97 887.495 110.656C887.301 110.34 886.995 110.182 886.576 110.182C886.16 110.182 885.857 110.338 885.667 110.652C885.476 110.965 885.378 111.447 885.372 112.098V113.398C885.372 114.09 885.472 114.601 885.671 114.932C885.873 115.26 886.178 115.424 886.585 115.424C886.986 115.424 887.284 115.269 887.477 114.958C887.673 114.648 887.776 114.159 887.785 113.491V112.159Z" fill="black"/>
<circle id="led_sfp_10" cx="872" cy="109" r="6.5" fill="#3B3B3B" stroke="#3B3B3B"/>
</g>
<g id="portasfp_16">
<rect id="retangulo_sfp_4_16" x="855.5" y="26.5" width="33" height="27" fill="#7E7E7E" stroke="black"/>
<path id="porta_sfp4_16" d="M883.724 69H879.532V68.4155L881.747 65.9546C882.075 65.5825 882.3 65.2808 882.423 65.0493C882.549 64.8149 882.612 64.5732 882.612 64.3242C882.612 63.9902 882.511 63.7163 882.309 63.5024C882.107 63.2886 881.837 63.1816 881.5 63.1816C881.096 63.1816 880.781 63.2974 880.556 63.5288C880.333 63.7573 880.222 64.0767 880.222 64.4868H879.409C879.409 63.8979 879.598 63.4219 879.976 63.0586C880.356 62.6953 880.865 62.5137 881.5 62.5137C882.095 62.5137 882.565 62.6704 882.911 62.9839C883.257 63.2944 883.43 63.709 883.43 64.2275C883.43 64.8574 883.028 65.6074 882.226 66.4775L880.512 68.3364H883.724V69ZM888.598 66.271C888.598 67.2231 888.435 67.9307 888.11 68.3936C887.785 68.8564 887.276 69.0879 886.585 69.0879C885.902 69.0879 885.397 68.8623 885.069 68.4111C884.741 67.957 884.571 67.2803 884.559 66.3809V65.2954C884.559 64.355 884.722 63.6562 885.047 63.1992C885.372 62.7422 885.882 62.5137 886.576 62.5137C887.265 62.5137 887.771 62.7349 888.097 63.1772C888.422 63.6167 888.589 64.2964 888.598 65.2163V66.271ZM887.785 65.1592C887.785 64.4707 887.688 63.9697 887.495 63.6562C887.301 63.3398 886.995 63.1816 886.576 63.1816C886.16 63.1816 885.857 63.3384 885.667 63.6519C885.476 63.9653 885.378 64.4473 885.372 65.0977V66.3984C885.372 67.0898 885.472 67.6011 885.671 67.9321C885.873 68.2603 886.178 68.4243 886.585 68.4243C886.986 68.4243 887.284 68.269 887.477 67.9585C887.673 67.6479 887.776 67.1587 887.785 66.4907V65.1592Z" fill="black"/>
<circle id="led_sfp_4_8" cx="872" cy="62" r="6.5" fill="#3B3B3B" stroke="#3B3B3B"/>
</g>
<g id="portasfp_17">
<rect id="retangulo_sfp_4_17" x="889.5" y="73.5" width="33" height="27" fill="#7E7E7E" stroke="black"/>
<path id="porta_sfp4_17" d="M916.204 116H915.386V110.582L913.747 111.184V110.445L916.076 109.571H916.204V116ZM921.257 116H920.44V110.582L918.801 111.184V110.445L921.13 109.571H921.257V116Z" fill="black"/>
<circle id="led_sfp_4_9" cx="906" cy="109" r="6.5" fill="#3B3B3B" stroke="#3B3B3B"/>
</g>
<g id="portasfp_18">
<rect id="retangulo_sfp_4_18" x="889.5" y="26.5" width="33" height="27" fill="#7E7E7E" stroke="black"/>
<path id="porta_sfp4_18" d="M917.724 69H913.532V68.4155L915.747 65.9546C916.075 65.5825 916.3 65.2808 916.423 65.0493C916.549 64.8149 916.612 64.5732 916.612 64.3242C916.612 63.9902 916.511 63.7163 916.309 63.5024C916.107 63.2886 915.837 63.1816 915.5 63.1816C915.096 63.1816 914.781 63.2974 914.556 63.5288C914.333 63.7573 914.222 64.0767 914.222 64.4868H913.409C913.409 63.8979 913.598 63.4219 913.976 63.0586C914.356 62.6953 914.865 62.5137 915.5 62.5137C916.095 62.5137 916.565 62.6704 916.911 62.9839C917.257 63.2944 917.43 63.709 917.43 64.2275C917.43 64.8574 917.028 65.6074 916.226 66.4775L914.512 68.3364H917.724V69ZM921.257 69H920.44V63.5815L918.801 64.1836V63.4453L921.13 62.5708H921.257V69Z" fill="black"/>
<circle id="led_sfp_4_10" cx="906" cy="62" r="6.5" fill="#3B3B3B" stroke="#3B3B3B"/>
</g>
<g id="portasfp_19">
<rect id="retangulo_sfp_4_19" x="923.5" y="73.5" width="33" height="27" fill="#7E7E7E" stroke="black"/>
<path id="porta_sfp4_19" d="M950.204 116H949.386V110.582L947.747 111.184V110.445L950.076 109.571H950.204V116ZM956.778 116H952.585V115.416L954.8 112.955C955.128 112.583 955.354 112.281 955.477 112.049C955.603 111.815 955.666 111.573 955.666 111.324C955.666 110.99 955.565 110.716 955.363 110.502C955.161 110.289 954.891 110.182 954.554 110.182C954.15 110.182 953.835 110.297 953.609 110.529C953.387 110.757 953.275 111.077 953.275 111.487H952.462C952.462 110.898 952.651 110.422 953.029 110.059C953.41 109.695 953.918 109.514 954.554 109.514C955.149 109.514 955.619 109.67 955.965 109.984C956.311 110.294 956.483 110.709 956.483 111.228C956.483 111.857 956.082 112.607 955.279 113.478L953.565 115.336H956.778V116Z" fill="black"/>
<circle id="led_sfp_4_11" cx="940" cy="109" r="6.5" fill="#3B3B3B" stroke="#3B3B3B"/>
</g>
<g id="portasfp_20">
<rect id="retangulo_sfp_4_20" x="923.5" y="26.5" width="33" height="27" fill="#7E7E7E" stroke="black"/>
<path id="porta_sfp4_20" d="M951.724 69H947.532V68.4155L949.747 65.9546C950.075 65.5825 950.3 65.2808 950.423 65.0493C950.549 64.8149 950.612 64.5732 950.612 64.3242C950.612 63.9902 950.511 63.7163 950.309 63.5024C950.107 63.2886 949.837 63.1816 949.5 63.1816C949.096 63.1816 948.781 63.2974 948.556 63.5288C948.333 63.7573 948.222 64.0767 948.222 64.4868H947.409C947.409 63.8979 947.598 63.4219 947.976 63.0586C948.356 62.6953 948.865 62.5137 949.5 62.5137C950.095 62.5137 950.565 62.6704 950.911 62.9839C951.257 63.2944 951.43 63.709 951.43 64.2275C951.43 64.8574 951.028 65.6074 950.226 66.4775L948.512 68.3364H951.724V69ZM956.778 69H952.585V68.4155L954.8 65.9546C955.128 65.5825 955.354 65.2808 955.477 65.0493C955.603 64.8149 955.666 64.5732 955.666 64.3242C955.666 63.9902 955.565 63.7163 955.363 63.5024C955.161 63.2886 954.891 63.1816 954.554 63.1816C954.15 63.1816 953.835 63.2974 953.609 63.5288C953.387 63.7573 953.275 64.0767 953.275 64.4868H952.462C952.462 63.8979 952.651 63.4219 953.029 63.0586C953.41 62.6953 953.918 62.5137 954.554 62.5137C955.149 62.5137 955.619 62.6704 955.965 62.9839C956.311 63.2944 956.483 63.709 956.483 64.2275C956.483 64.8574 956.082 65.6074 955.279 66.4775L953.565 68.3364H956.778V69Z" fill="black"/>
<circle id="led_sfp_4_12" cx="940" cy="62" r="6.5" fill="#3B3B3B" stroke="#3B3B3B"/>
</g>
<g id="portasfp_21">
<rect id="retangulo_sfp_4_21" x="957.5" y="73.5" width="33" height="27" fill="#7E7E7E" stroke="black"/>
<path id="porta_sfp4_21" d="M984.204 116H983.386V110.582L981.747 111.184V110.445L984.076 109.571H984.204V116ZM987.768 112.405H988.378C988.762 112.399 989.064 112.298 989.284 112.102C989.503 111.906 989.613 111.641 989.613 111.307C989.613 110.557 989.24 110.182 988.493 110.182C988.141 110.182 987.86 110.283 987.649 110.485C987.441 110.684 987.337 110.949 987.337 111.28H986.524C986.524 110.773 986.708 110.353 987.078 110.019C987.45 109.682 987.921 109.514 988.493 109.514C989.096 109.514 989.569 109.673 989.912 109.993C990.255 110.312 990.426 110.756 990.426 111.324C990.426 111.603 990.335 111.872 990.154 112.133C989.975 112.394 989.73 112.588 989.42 112.717C989.771 112.829 990.042 113.013 990.233 113.271C990.426 113.529 990.523 113.844 990.523 114.216C990.523 114.79 990.335 115.246 989.96 115.583C989.585 115.919 989.098 116.088 988.497 116.088C987.896 116.088 987.407 115.925 987.029 115.6C986.654 115.275 986.467 114.846 986.467 114.312H987.284C987.284 114.649 987.394 114.919 987.614 115.121C987.833 115.323 988.128 115.424 988.497 115.424C988.89 115.424 989.19 115.322 989.398 115.117C989.606 114.912 989.71 114.617 989.71 114.233C989.71 113.861 989.596 113.576 989.367 113.376C989.139 113.177 988.809 113.075 988.378 113.069H987.768V112.405Z" fill="black"/>
<circle id="led_sfp_4_13" cx="974" cy="109" r="6.5" fill="#3B3B3B" stroke="#3B3B3B"/>
</g>
<g id="portasfp_22">
<rect id="retangulo_sfp_4_22" x="957.5" y="26.5" width="33" height="27" fill="#7E7E7E" stroke="black"/>
<path id="porta_sfp4_22" d="M985.724 69H981.532V68.4155L983.747 65.9546C984.075 65.5825 984.3 65.2808 984.423 65.0493C984.549 64.8149 984.612 64.5732 984.612 64.3242C984.612 63.9902 984.511 63.7163 984.309 63.5024C984.107 63.2886 983.837 63.1816 983.5 63.1816C983.096 63.1816 982.781 63.2974 982.556 63.5288C982.333 63.7573 982.222 64.0767 982.222 64.4868H981.409C981.409 63.8979 981.598 63.4219 981.976 63.0586C982.356 62.6953 982.865 62.5137 983.5 62.5137C984.095 62.5137 984.565 62.6704 984.911 62.9839C985.257 63.2944 985.43 63.709 985.43 64.2275C985.43 64.8574 985.028 65.6074 984.226 66.4775L982.512 68.3364H985.724V69ZM987.768 65.4053H988.378C988.762 65.3994 989.064 65.2983 989.284 65.1021C989.503 64.9058 989.613 64.6406 989.613 64.3066C989.613 63.5566 989.24 63.1816 988.493 63.1816C988.141 63.1816 987.86 63.2827 987.649 63.4849C987.441 63.6841 987.337 63.9492 987.337 64.2803H986.524C986.524 63.7734 986.708 63.353 987.078 63.019C987.45 62.6821 987.921 62.5137 988.493 62.5137C989.096 62.5137 989.569 62.6733 989.912 62.9927C990.255 63.312 990.426 63.7559 990.426 64.3242C990.426 64.6025 990.335 64.8721 990.154 65.1328C989.975 65.3936 989.73 65.5884 989.42 65.7173C989.771 65.8286 990.042 66.0132 990.233 66.271C990.426 66.5288 990.523 66.8438 990.523 67.2158C990.523 67.79 990.335 68.2456 989.96 68.5825C989.585 68.9194 989.098 69.0879 988.497 69.0879C987.896 69.0879 987.407 68.9253 987.029 68.6001C986.654 68.2749 986.467 67.8457 986.467 67.3125H987.284C987.284 67.6494 987.394 67.9189 987.614 68.1211C987.833 68.3232 988.128 68.4243 988.497 68.4243C988.89 68.4243 989.19 68.3218 989.398 68.1167C989.606 67.9116 989.71 67.6172 989.71 67.2334C989.71 66.8613 989.596 66.5757 989.367 66.3765C989.139 66.1772 988.809 66.0747 988.378 66.0688H987.768V65.4053Z" fill="black"/>
<circle id="led_sfp_4_14" cx="974" cy="62" r="6.5" fill="#3B3B3B" stroke="#3B3B3B"/>
</g>
<g id="portas40_100">
<rect id="p40_100gb1" x="336.5" y="73.5" width="51" height="27" fill="#7E7E7E" stroke="black"/>
<rect id="p40_100gb2" x="400.5" y="73.5" width="51" height="27" fill="#7E7E7E" stroke="black"/>
<rect id="p40_100gb3" x="464.5" y="73.5" width="51" height="27" fill="#7E7E7E" stroke="black"/>
<rect id="p40_100gb4" x="528.5" y="73.5" width="51" height="27" fill="#7E7E7E" stroke="black"/>
</g>
<g id="portas_rj45">
<g id="rj45">
<g id="g3824">
<path id="fora" d="M337.532 52H374.468C375.314 52 376 51.2418 376 50.3065V19.6935C376 18.7582 375.314 18 374.468 18H337.532C336.686 18 336 18.7582 336 19.6935V50.3065C336 51.2418 336.686 52 337.532 52Z" fill="url(#paint0_linear)" stroke="#0A0A0A" stroke-linecap="square"/>
<g id="g3807">
<g id="g3791">
<path id="rect3787" d="M371.228 49.8506H340.889C340.106 49.8506 339.475 49.1534 339.475 48.2874L339.475 28.5334H346.853V25.0016H349.803L349.803 20.2796H362.314L362.314 25.0016H365.264V28.5334H372.642L372.642 48.2874C372.642 49.1534 372.012 49.8506 371.228 49.8506H371.228Z" fill="#555555" stroke="#0A0A0A" stroke-width="1.5" stroke-linecap="square"/>
<g id="g3777">
<path id="rect2987" d="M367.789 49.818H369.114V41.2693H367.789V49.818Z" fill="#FFEC3D" stroke="#191919" stroke-width="0.4" stroke-linecap="square"/>
<path id="rect3757" d="M343.003 49.818H344.328V41.2693H343.003V49.818Z" fill="#FFEC3D" stroke="#191919" stroke-width="0.4" stroke-linecap="square"/>
<path id="rect3765" d="M350.085 49.818H351.41V41.2693H350.085V49.818Z" fill="#FFEC3D" stroke="#191919" stroke-width="0.4" stroke-linecap="square"/>
<path id="rect3767" d="M353.624 49.818H354.949V41.2693H353.624V49.818Z" fill="#FFEC3D" stroke="#191919" stroke-width="0.4" stroke-linecap="square"/>
<path id="rect3769" d="M357.167 49.818H358.492V41.2693H357.167V49.818Z" fill="#FFEC3D" stroke="#191919" stroke-width="0.4" stroke-linecap="square"/>
<path id="rect3771" d="M360.706 49.818H362.031V41.2693H360.706V49.818Z" fill="#FFEC3D" stroke="#191919" stroke-width="0.4" stroke-linecap="square"/>
<path id="rect3773" d="M364.248 49.818H365.573V41.2693H364.248V49.818Z" fill="#FFEC3D" stroke="#191919" stroke-width="0.4" stroke-linecap="square"/>
<path id="rect3775" d="M346.542 49.818H347.868V41.2693H346.542V49.818Z" fill="#FFEC3D" stroke="#191919" stroke-width="0.4" stroke-linecap="square"/>
</g>
</g>
<path id="led-green" d="M366.924 26.8263H372.727V21.6155H366.924V26.8263Z" fill="#C1FFBC" stroke="#0A0A0A" stroke-linecap="square"/>
<path id="led-yellow" d="M339.392 26.8263H345.194V21.6155H339.392V26.8263Z" fill="#F1FF9A" stroke="#0A0A0A" stroke-linecap="square"/>
</g>
</g>
</g>
<g id="rj45_2">
<g id="g3824_2">
<path id="fora_2" d="M382.532 52H419.468C420.314 52 421 51.2418 421 50.3065V19.6935C421 18.7582 420.314 18 419.468 18H382.532C381.686 18 381 18.7582 381 19.6935V50.3065C381 51.2418 381.686 52 382.532 52Z" fill="url(#paint1_linear)" stroke="#0A0A0A" stroke-linecap="square"/>
<g id="g3807_2">
<g id="g3791_2">
<path id="rect3787_2" d="M416.228 49.8506H385.889C385.106 49.8506 384.475 49.1534 384.475 48.2874L384.475 28.5334H391.853V25.0016H394.803L394.803 20.2796H407.314L407.314 25.0016H410.264V28.5334H417.642L417.642 48.2874C417.642 49.1534 417.012 49.8506 416.228 49.8506H416.228Z" fill="#555555" stroke="#0A0A0A" stroke-width="1.5" stroke-linecap="square"/>
<g id="g3777_2">
<path id="rect2987_2" d="M412.789 49.818H414.114V41.2693H412.789V49.818Z" fill="#FFEC3D" stroke="#191919" stroke-width="0.4" stroke-linecap="square"/>
<path id="rect3757_2" d="M388.003 49.818H389.328V41.2693H388.003V49.818Z" fill="#FFEC3D" stroke="#191919" stroke-width="0.4" stroke-linecap="square"/>
<path id="rect3765_2" d="M395.085 49.818H396.41V41.2693H395.085V49.818Z" fill="#FFEC3D" stroke="#191919" stroke-width="0.4" stroke-linecap="square"/>
<path id="rect3767_2" d="M398.624 49.818H399.949V41.2693H398.624V49.818Z" fill="#FFEC3D" stroke="#191919" stroke-width="0.4" stroke-linecap="square"/>
<path id="rect3769_2" d="M402.167 49.818H403.492V41.2693H402.167V49.818Z" fill="#FFEC3D" stroke="#191919" stroke-width="0.4" stroke-linecap="square"/>
<path id="rect3771_2" d="M405.706 49.818H407.031V41.2693H405.706V49.818Z" fill="#FFEC3D" stroke="#191919" stroke-width="0.4" stroke-linecap="square"/>
<path id="rect3773_2" d="M409.248 49.818H410.573V41.2693H409.248V49.818Z" fill="#FFEC3D" stroke="#191919" stroke-width="0.4" stroke-linecap="square"/>
<path id="rect3775_2" d="M391.542 49.818H392.868V41.2693H391.542V49.818Z" fill="#FFEC3D" stroke="#191919" stroke-width="0.4" stroke-linecap="square"/>
</g>
</g>
<path id="led-green_2" d="M411.924 26.8263H417.727V21.6155H411.924V26.8263Z" fill="#C1FFBC" stroke="#0A0A0A" stroke-linecap="square"/>
<path id="led-yellow_2" d="M384.392 26.8263H390.194V21.6155H384.392V26.8263Z" fill="#F1FF9A" stroke="#0A0A0A" stroke-linecap="square"/>
</g>
</g>
</g>
<g id="rj45_3">
<g id="g3824_3">
<path id="fora_3" d="M427.532 52H464.468C465.314 52 466 51.2418 466 50.3065V19.6935C466 18.7582 465.314 18 464.468 18H427.532C426.686 18 426 18.7582 426 19.6935V50.3065C426 51.2418 426.686 52 427.532 52Z" fill="url(#paint2_linear)" stroke="#0A0A0A" stroke-linecap="square"/>
<g id="g3807_3">
<g id="g3791_3">
<path id="rect3787_3" d="M461.228 49.8506H430.889C430.106 49.8506 429.475 49.1534 429.475 48.2874L429.475 28.5334H436.853V25.0016H439.803L439.803 20.2796H452.314L452.314 25.0016H455.264V28.5334H462.642L462.642 48.2874C462.642 49.1534 462.012 49.8506 461.228 49.8506H461.228Z" fill="#555555" stroke="#0A0A0A" stroke-width="1.5" stroke-linecap="square"/>
<g id="g3777_3">
<path id="rect2987_3" d="M457.789 49.818H459.114V41.2693H457.789V49.818Z" fill="#FFEC3D" stroke="#191919" stroke-width="0.4" stroke-linecap="square"/>
<path id="rect3757_3" d="M433.003 49.818H434.328V41.2693H433.003V49.818Z" fill="#FFEC3D" stroke="#191919" stroke-width="0.4" stroke-linecap="square"/>
<path id="rect3765_3" d="M440.085 49.818H441.41V41.2693H440.085V49.818Z" fill="#FFEC3D" stroke="#191919" stroke-width="0.4" stroke-linecap="square"/>
<path id="rect3767_3" d="M443.624 49.818H444.949V41.2693H443.624V49.818Z" fill="#FFEC3D" stroke="#191919" stroke-width="0.4" stroke-linecap="square"/>
<path id="rect3769_3" d="M447.167 49.818H448.492V41.2693H447.167V49.818Z" fill="#FFEC3D" stroke="#191919" stroke-width="0.4" stroke-linecap="square"/>
<path id="rect3771_3" d="M450.706 49.818H452.031V41.2693H450.706V49.818Z" fill="#FFEC3D" stroke="#191919" stroke-width="0.4" stroke-linecap="square"/>
<path id="rect3773_3" d="M454.248 49.818H455.573V41.2693H454.248V49.818Z" fill="#FFEC3D" stroke="#191919" stroke-width="0.4" stroke-linecap="square"/>
<path id="rect3775_3" d="M436.542 49.818H437.868V41.2693H436.542V49.818Z" fill="#FFEC3D" stroke="#191919" stroke-width="0.4" stroke-linecap="square"/>
</g>
</g>
<path id="led-green_3" d="M456.924 26.8263H462.727V21.6155H456.924V26.8263Z" fill="#C1FFBC" stroke="#0A0A0A" stroke-linecap="square"/>
<path id="led-yellow_3" d="M429.392 26.8263H435.194V21.6155H429.392V26.8263Z" fill="#F1FF9A" stroke="#0A0A0A" stroke-linecap="square"/>
</g>
</g>
</g>
<g id="rj45_4">
<g id="g3824_4">
<path id="fora_4" d="M472.532 52H509.468C510.314 52 511 51.2418 511 50.3065V19.6935C511 18.7582 510.314 18 509.468 18H472.532C471.686 18 471 18.7582 471 19.6935V50.3065C471 51.2418 471.686 52 472.532 52Z" fill="url(#paint3_linear)" stroke="#0A0A0A" stroke-linecap="square"/>
<g id="g3807_4">
<g id="g3791_4">
<path id="rect3787_4" d="M506.228 49.8506H475.889C475.106 49.8506 474.475 49.1534 474.475 48.2874L474.475 28.5334H481.853V25.0016H484.803L484.803 20.2796H497.314L497.314 25.0016H500.264V28.5334H507.642L507.642 48.2874C507.642 49.1534 507.012 49.8506 506.228 49.8506H506.228Z" fill="#555555" stroke="#0A0A0A" stroke-width="1.5" stroke-linecap="square"/>
<g id="g3777_4">
<path id="rect2987_4" d="M502.789 49.818H504.114V41.2693H502.789V49.818Z" fill="#FFEC3D" stroke="#191919" stroke-width="0.4" stroke-linecap="square"/>
<path id="rect3757_4" d="M478.003 49.818H479.328V41.2693H478.003V49.818Z" fill="#FFEC3D" stroke="#191919" stroke-width="0.4" stroke-linecap="square"/>
<path id="rect3765_4" d="M485.085 49.818H486.41V41.2693H485.085V49.818Z" fill="#FFEC3D" stroke="#191919" stroke-width="0.4" stroke-linecap="square"/>
<path id="rect3767_4" d="M488.624 49.818H489.949V41.2693H488.624V49.818Z" fill="#FFEC3D" stroke="#191919" stroke-width="0.4" stroke-linecap="square"/>
<path id="rect3769_4" d="M492.167 49.818H493.492V41.2693H492.167V49.818Z" fill="#FFEC3D" stroke="#191919" stroke-width="0.4" stroke-linecap="square"/>
<path id="rect3771_4" d="M495.706 49.818H497.031V41.2693H495.706V49.818Z" fill="#FFEC3D" stroke="#191919" stroke-width="0.4" stroke-linecap="square"/>
<path id="rect3773_4" d="M499.248 49.818H500.573V41.2693H499.248V49.818Z" fill="#FFEC3D" stroke="#191919" stroke-width="0.4" stroke-linecap="square"/>
<path id="rect3775_4" d="M481.542 49.818H482.868V41.2693H481.542V49.818Z" fill="#FFEC3D" stroke="#191919" stroke-width="0.4" stroke-linecap="square"/>
</g>
</g>
<path id="led-green_4" d="M501.924 26.8263H507.727V21.6155H501.924V26.8263Z" fill="#C1FFBC" stroke="#0A0A0A" stroke-linecap="square"/>
<path id="led-yellow_4" d="M474.392 26.8263H480.194V21.6155H474.392V26.8263Z" fill="#F1FF9A" stroke="#0A0A0A" stroke-linecap="square"/>
</g>
</g>
</g>
</g>
</g>
<g id="aterramento">
<g id="aterramento_simbolo">
<g id="Rectangle 2" filter="url(#filter1_d)">
<rect x="8" y="123" width="30" height="27" rx="6" fill="#C4C4C4"/>
</g>
<line id="Line 1" x1="23" y1="126" x2="23" y2="135" stroke="black" stroke-width="2"/>
<line id="Line 2" x1="34" y1="135" x2="12" y2="135" stroke="black" stroke-width="2"/>
<line id="Line 3" x1="32" y1="139" x2="14" y2="139" stroke="black" stroke-width="2"/>
<line id="Line 4" x1="29" y1="143" x2="17" y2="143" stroke="black" stroke-width="2"/>
</g>
<g id="parafuso_21" filter="url(#filter2_d)">
<path fill-rule="evenodd" clip-rule="evenodd" d="M23 121C32.3888 121 40 113.389 40 104C40 94.6112 32.3888 87 23 87C13.6112 87 6 94.6112 6 104C6 113.389 13.6112 121 23 121ZM23 110C26.3137 110 29 107.314 29 104C29 100.686 26.3137 98 23 98C19.6863 98 17 100.686 17 104C17 107.314 19.6863 110 23 110Z" fill="#B3B3B3"/>
</g>
</g>
</g>
<defs>
<filter id="filter0_d" x="79" y="196" width="42" height="42" filterUnits="userSpaceOnUse" color-interpolation-filters="sRGB">
<feFlood flood-opacity="0" result="BackgroundImageFix"/>
<feColorMatrix in="SourceAlpha" type="matrix" values="0 0 0 0 0 0 0 0 0 0 0 0 0 0 0 0 0 0 127 0" result="hardAlpha"/>
<feOffset dx="3" dy="3"/>
<feGaussianBlur stdDeviation="2"/>
<feColorMatrix type="matrix" values="0 0 0 0 0 0 0 0 0 0 0 0 0 0 0 0 0 0 0.25 0"/>
<feBlend mode="normal" in2="BackgroundImageFix" result="effect1_dropShadow"/>
<feBlend mode="normal" in="SourceGraphic" in2="effect1_dropShadow" result="shape"/>
</filter>
<filter id="filter1_d" x="4" y="123" width="38" height="35" filterUnits="userSpaceOnUse" color-interpolation-filters="sRGB">
<feFlood flood-opacity="0" result="BackgroundImageFix"/>
<feColorMatrix in="SourceAlpha" type="matrix" values="0 0 0 0 0 0 0 0 0 0 0 0 0 0 0 0 0 0 127 0" result="hardAlpha"/>
<feOffset dy="4"/>
<feGaussianBlur stdDeviation="2"/>
<feColorMatrix type="matrix" values="0 0 0 0 0 0 0 0 0 0 0 0 0 0 0 0 0 0 0.25 0"/>
<feBlend mode="normal" in2="BackgroundImageFix" result="effect1_dropShadow"/>
<feBlend mode="normal" in="SourceGraphic" in2="effect1_dropShadow" result="shape"/>
</filter>
<filter id="filter2_d" x="2" y="87" width="42" height="42" filterUnits="userSpaceOnUse" color-interpolation-filters="sRGB">
<feFlood flood-opacity="0" result="BackgroundImageFix"/>
<feColorMatrix in="SourceAlpha" type="matrix" values="0 0 0 0 0 0 0 0 0 0 0 0 0 0 0 0 0 0 127 0" result="hardAlpha"/>
<feOffset dy="4"/>
<feGaussianBlur stdDeviation="2"/>
<feColorMatrix type="matrix" values="0 0 0 0 0.0291667 0 0 0 0 0.0291667 0 0 0 0 0.0291667 0 0 0 0.25 0"/>
<feBlend mode="normal" in2="BackgroundImageFix" result="effect1_dropShadow"/>
<feBlend mode="normal" in="SourceGraphic" in2="effect1_dropShadow" result="shape"/>
</filter>
<linearGradient id="paint0_linear" x1="376" y1="52" x2="333.221" y2="22.9809" gradientUnits="userSpaceOnUse">
<stop stop-color="#8C8C8C"/>
<stop offset="1" stop-color="white"/>
</linearGradient>
<linearGradient id="paint1_linear" x1="421" y1="52" x2="378.221" y2="22.9809" gradientUnits="userSpaceOnUse">
<stop stop-color="#8C8C8C"/>
<stop offset="1" stop-color="white"/>
</linearGradient>
<linearGradient id="paint2_linear" x1="466" y1="52" x2="423.221" y2="22.9809" gradientUnits="userSpaceOnUse">
<stop stop-color="#8C8C8C"/>
<stop offset="1" stop-color="white"/>
</linearGradient>
<linearGradient id="paint3_linear" x1="511" y1="52" x2="468.221" y2="22.9809" gradientUnits="userSpaceOnUse">
<stop stop-color="#8C8C8C"/>
<stop offset="1" stop-color="white"/>
</linearGradient>
</defs>
</svg>
